<svg version="1.1" xmlns="http://www.w3.org/2000/svg" viewBox="0 0 2631.6071428571427 1038.5535714285716" width="2631.6071428571427" height="1038.5535714285716">
  <!-- svg-source:excalidraw -->
  
  <defs>
    <style class="style-fonts">
      @font-face {
        font-family: "Virgil";
        src: url("https://excalidraw.com/Virgil.woff2");
      }
      @font-face {
        font-family: "Cascadia";
        src: url("https://excalidraw.com/Cascadia.woff2");
      }
    </style>
    
  </defs>
  <rect x="0" y="0" width="2631.6071428571427" height="1038.5535714285716" fill="#ffffff"></rect><g stroke-linecap="round" transform="translate(531 48.428571428571416) rotate(0 599.5 399.125)"><path d="M32 0 M32 0 C436.2 0.59, 840.86 1.11, 1167 0 M32 0 C296.89 -1.9, 562.22 -2.28, 1167 0 M1167 0 C1188.49 0.29, 1199.01 8.83, 1199 32 M1167 0 C1189.53 0.75, 1200.67 10.01, 1199 32 M1199 32 C1200.88 221.43, 1200.4 410.42, 1199 766.25 M1199 32 C1200.98 269.63, 1200.32 506.82, 1199 766.25 M1199 766.25 C1200.99 787.18, 1186.49 798.49, 1167 798.25 M1199 766.25 C1197.32 788.59, 1189.48 796.31, 1167 798.25 M1167 798.25 C937.94 796.62, 709.67 796.89, 32 798.25 M1167 798.25 C730.97 797.29, 294.57 796.92, 32 798.25 M32 798.25 C9.64 799.59, -1.32 785.62, 0 766.25 M32 798.25 C12.32 798.15, -1.08 787.09, 0 766.25 M0 766.25 C1.84 583.43, 3.04 400.31, 0 32 M0 766.25 C-2.38 543.6, -2.08 321.96, 0 32 M0 32 C1.25 12.33, 9.4 1.23, 32 0 M0 32 C1.54 11.24, 9.71 0.66, 32 0" stroke="#1e1e1e" stroke-width="1" fill="none"></path></g><g transform="translate(574.8571428571429 10) rotate(0 103.935546875 11.5)"><text x="0" y="0" font-family="Helvetica, Segoe UI Emoji" font-size="20px" fill="#1e1e1e" text-anchor="start" style="white-space: pre;" direction="ltr" dominant-baseline="text-before-edge">App (NextJS on Vercel)</text></g><g stroke-linecap="round" transform="translate(586.5 212.67857142857142) rotate(0 218 196.5)"><path d="M32 0 M32 0 C160.38 0.32, 289.18 0.98, 404 0 M32 0 C116.73 2.46, 200.21 2.32, 404 0 M404 0 C425.38 -1.94, 435.38 8.93, 436 32 M404 0 C423.47 0.75, 437.56 9.86, 436 32 M436 32 C435.62 107.07, 435.36 183.78, 436 361 M436 32 C437.13 162.17, 436.74 293.92, 436 361 M436 361 C435.24 381.34, 424.55 392.72, 404 393 M436 361 C434.8 381.78, 426.51 392.95, 404 393 M404 393 C327.75 392.22, 254.23 391.59, 32 393 M404 393 C258.14 391.07, 111.62 392.07, 32 393 M32 393 C9.12 394.67, -1.9 380.81, 0 361 M32 393 C10.41 391.89, -1.17 383.1, 0 361 M0 361 C-0.73 274.39, 1.55 184.92, 0 32 M0 361 C1.15 260.36, 0.3 159.38, 0 32 M0 32 C1.57 9.56, 12.23 -0.26, 32 0 M0 32 C-0.49 8.54, 11.51 1.81, 32 0" stroke="#1e1e1e" stroke-width="1" fill="none"></path></g><g stroke-linecap="round" transform="translate(1132.7843137254902 138.87389571213097) rotate(0 283.8578431372549 316.4023378582203)"><path d="M32 0 M32 0 C163.97 0.37, 295.97 1.2, 535.72 0 M32 0 C181.87 0.97, 332.35 1.52, 535.72 0 M535.72 0 C556.84 1.85, 566.23 9.45, 567.72 32 M535.72 0 C557.86 -2.05, 566.87 12.37, 567.72 32 M567.72 32 C569 158.53, 569.22 284.84, 567.72 600.8 M567.72 32 C567.11 221.32, 567.29 411.61, 567.72 600.8 M567.72 600.8 C566.9 622.28, 556.31 634.8, 535.72 632.8 M567.72 600.8 C568.79 623.49, 555.29 634.35, 535.72 632.8 M535.72 632.8 C344.96 634.21, 153.68 634.67, 32 632.8 M535.72 632.8 C344.95 634.59, 154.19 633.96, 32 632.8 M32 632.8 C12.2 632.97, 0.17 623.82, 0 600.8 M32 632.8 C9.59 631.31, 0.64 623.93, 0 600.8 M0 600.8 C-0.6 417.71, -1.01 234, 0 32 M0 600.8 C0.16 459.29, 0.57 318.52, 0 32 M0 32 C1.29 11.33, 10.12 0.77, 32 0 M0 32 C0.75 9.95, 10.61 -0.25, 32 0" stroke="#1e1e1e" stroke-width="1" fill="none"></path></g><g transform="translate(613.5 176.67857142857142) rotate(0 75.5859375 11.5)"><text x="0" y="0" font-family="Helvetica, Segoe UI Emoji" font-size="20px" fill="#1e1e1e" text-anchor="start" style="white-space: pre;" direction="ltr" dominant-baseline="text-before-edge">Frontend (React)</text></g><g transform="translate(1151.00697586727 106.17857142857142) rotate(0 29.394210815429688 11.478318250377072)"><text x="0" y="0" font-family="Helvetica, Segoe UI Emoji" font-size="19.962292609351433px" fill="#1e1e1e" text-anchor="start" style="white-space: pre;" direction="ltr" dominant-baseline="text-before-edge">Server</text></g><g transform="translate(629.75 450.67857142857144) rotate(0 152.8662109375 57.5)"><text x="0" y="0" font-family="Helvetica, Segoe UI Emoji" font-size="20px" fill="#1971c2" text-anchor="start" style="white-space: pre;" direction="ltr" dominant-baseline="text-before-edge"></text><text x="0" y="23" font-family="Helvetica, Segoe UI Emoji" font-size="20px" fill="#1971c2" text-anchor="start" style="white-space: pre;" direction="ltr" dominant-baseline="text-before-edge">- Has components library</text><text x="0" y="46" font-family="Helvetica, Segoe UI Emoji" font-size="20px" fill="#1971c2" text-anchor="start" style="white-space: pre;" direction="ltr" dominant-baseline="text-before-edge">- Much easier than CSS alone</text><text x="0" y="69" font-family="Helvetica, Segoe UI Emoji" font-size="20px" fill="#1971c2" text-anchor="start" style="white-space: pre;" direction="ltr" dominant-baseline="text-before-edge">- Can use ShadncdUI components</text><text x="0" y="92" font-family="Helvetica, Segoe UI Emoji" font-size="20px" fill="#1971c2" text-anchor="start" style="white-space: pre;" direction="ltr" dominant-baseline="text-before-edge">- Can use RadixUI components</text></g><g stroke-linecap="round" transform="translate(616.75 458.67857142857144) rotate(0 168.5 61.5)"><path d="M30.75 0 M30.75 0 C118.64 0.13, 204.99 0.3, 306.25 0 M30.75 0 C87.35 -0.35, 143.85 -0.24, 306.25 0 M306.25 0 C325.11 0.81, 337.99 10.13, 337 30.75 M306.25 0 C328.68 1.47, 334.8 8.06, 337 30.75 M337 30.75 C336.48 44.72, 337.59 60.06, 337 92.25 M337 30.75 C338.05 53.42, 338.3 75.62, 337 92.25 M337 92.25 C337.17 114.67, 324.8 121.87, 306.25 123 M337 92.25 C336.54 113.11, 326.41 121.7, 306.25 123 M306.25 123 C250.29 122.36, 194.71 121.57, 30.75 123 M306.25 123 C201.65 121.65, 98.55 122.41, 30.75 123 M30.75 123 C9.83 121.87, 0.15 113.22, 0 92.25 M30.75 123 C8.54 122.02, -0.68 114.33, 0 92.25 M0 92.25 C-1.04 73.9, 0.87 51.67, 0 30.75 M0 92.25 C0.03 77.27, 0.39 63.12, 0 30.75 M0 30.75 C-1.64 11.4, 8.42 -1.95, 30.75 0 M0 30.75 C-0.1 8.52, 11.28 -1.05, 30.75 0" stroke="#1e1e1e" stroke-width="1" fill="none"></path></g><g transform="translate(636.75 426.67857142857144) rotate(0 95.5859375 11.5)"><text x="0" y="0" font-family="Helvetica, Segoe UI Emoji" font-size="20px" fill="#1e1e1e" text-anchor="start" style="white-space: pre;" direction="ltr" dominant-baseline="text-before-edge">Styling (TailwindCSS)</text></g><g stroke-linecap="round" transform="translate(2275.3571428571427 204.4464285714287) rotate(0 173.125 174.37499999999997)"><path d="M32 0 M32 0 C132.78 -0.86, 234.55 -2.18, 314.25 0 M32 0 C117.74 0.03, 202.79 -0.76, 314.25 0 M314.25 0 C335.21 -0.47, 346.68 11.95, 346.25 32 M314.25 0 C335.56 1.24, 347.24 9.5, 346.25 32 M346.25 32 C346.6 127.34, 346.75 225.36, 346.25 316.75 M346.25 32 C344.34 105.45, 344.86 178.51, 346.25 316.75 M346.25 316.75 C346.78 336.77, 336.94 347.66, 314.25 348.75 M346.25 316.75 C348.48 339.83, 337.45 349.45, 314.25 348.75 M314.25 348.75 C204.8 348.45, 93.64 349.02, 32 348.75 M314.25 348.75 C213.78 346.19, 111.98 347.06, 32 348.75 M32 348.75 C9.76 347.56, -1.33 339.7, 0 316.75 M32 348.75 C9.7 347.11, -1.12 338.62, 0 316.75 M0 316.75 C-2.17 234.73, -0.68 154.74, 0 32 M0 316.75 C-0.98 220.83, -0.68 125.6, 0 32 M0 32 C0.47 11.16, 11.31 1.38, 32 0 M0 32 C-1.72 9.71, 10.61 -2.27, 32 0" stroke="#1e1e1e" stroke-width="1" fill="none"></path></g><g transform="translate(2300.3571428571427 169.4464285714287) rotate(0 97.28515625 11.5)"><text x="0" y="0" font-family="Helvetica, Segoe UI Emoji" font-size="20px" fill="#1e1e1e" text-anchor="start" style="white-space: pre;" direction="ltr" dominant-baseline="text-before-edge">Database (Supabase)</text></g><g stroke-linecap="round" transform="translate(1916.6071428571427 265.69642857142867) rotate(0 121.875 125.62500000000003)"><path d="M32 0 M32 0 C69.86 -1.33, 108.66 -2.13, 211.75 0 M211.75 0 C234.55 -0.54, 241.96 10.85, 243.75 32 M243.75 32 C243.86 102.38, 242.73 168.81, 243.75 219.25 M243.75 219.25 C244.12 239.3, 234.86 251.47, 211.75 251.25 M211.75 251.25 C157.59 252.9, 102.48 250.82, 32 251.25 M32 251.25 C10.75 251.4, -1.21 240.7, 0 219.25 M0 219.25 C1.01 154.38, -2.65 89.95, 0 32 M0 32 C1.59 11.58, 9.82 -0.59, 32 0" stroke="#1e1e1e" stroke-width="1.5" fill="none" stroke-dasharray="8 9"></path></g><g transform="translate(1934.1071428571427 226.9464285714287) rotate(0 96.11328125 11.5)"><text x="0" y="0" font-family="Helvetica, Segoe UI Emoji" font-size="20px" fill="#1e1e1e" text-anchor="start" style="white-space: pre;" direction="ltr" dominant-baseline="text-before-edge">ORM Server (Prisma)</text></g><g transform="translate(1947.8571428571427 296.94642857142867) rotate(0 90.01953125 23)"><text x="0" y="0" font-family="Helvetica, Segoe UI Emoji" font-size="20px" fill="#1971c2" text-anchor="start" style="white-space: pre;" direction="ltr" dominant-baseline="text-before-edge">- Only exists when </text><text x="0" y="23" font-family="Helvetica, Segoe UI Emoji" font-size="20px" fill="#1971c2" text-anchor="start" style="white-space: pre;" direction="ltr" dominant-baseline="text-before-edge">Prisma Client calls it</text></g><g stroke-linecap="round" transform="translate(1165.7362368024133 204.62469699418224) rotate(0 259.04506033182497 215.93302224736044)"><path d="M32 0 M32 0 C181.56 1.96, 333.09 0.73, 486.09 0 M32 0 C153.41 1.29, 273.73 1.15, 486.09 0 M486.09 0 C509.41 1.88, 518.17 9.72, 518.09 32 M486.09 0 C505.36 1.43, 519.16 10.42, 518.09 32 M518.09 32 C516.81 159.8, 517.07 287.94, 518.09 399.87 M518.09 32 C517.57 171.84, 518.3 312.71, 518.09 399.87 M518.09 399.87 C517.46 419.69, 506.64 431.32, 486.09 431.87 M518.09 399.87 C515.98 421.35, 506.55 430.89, 486.09 431.87 M486.09 431.87 C381.78 430.35, 278.47 429.41, 32 431.87 M486.09 431.87 C365.23 431.82, 244.05 432.27, 32 431.87 M32 431.87 C12.43 431.48, -0.33 421.55, 0 399.87 M32 431.87 C11.24 431.1, -2.25 420.3, 0 399.87 M0 399.87 C-2.85 323.7, -2.56 248.1, 0 32 M0 399.87 C-0.35 283.27, 0.49 165.36, 0 32 M0 32 C0.92 9.05, 11.21 1.07, 32 0 M0 32 C1.23 12.93, 12.28 -1.84, 32 0" stroke="#1e1e1e" stroke-width="1" fill="none"></path></g><g transform="translate(1179.4555995475114 170.926544656324) rotate(0 112.01666259765625 11.478318250377072)"><text x="0" y="0" font-family="Helvetica, Segoe UI Emoji" font-size="19.962292609351437px" fill="#1e1e1e" text-anchor="start" style="white-space: pre;" direction="ltr" dominant-baseline="text-before-edge">API Server (tRPC server)</text></g><g stroke-linecap="round" transform="translate(1917.8571428571427 658.1964285714287) rotate(0 120.625 125)"><path d="M32 0 M32 0 C86.54 -1.46, 138.47 0.3, 209.25 0 M32 0 C76.64 0.05, 122.22 0.38, 209.25 0 M209.25 0 C230.77 0.08, 241.96 9.35, 241.25 32 M209.25 0 C231.35 -1.34, 241.31 11.36, 241.25 32 M241.25 32 C238.83 99.55, 240.72 166.51, 241.25 218 M241.25 32 C243.76 95.8, 243.09 160.78, 241.25 218 M241.25 218 C240.49 240.88, 231.14 249.75, 209.25 250 M241.25 218 C241.76 240.32, 229.9 249.04, 209.25 250 M209.25 250 C163.84 249.83, 114.62 250.24, 32 250 M209.25 250 C166.95 249.76, 125.67 249.76, 32 250 M32 250 C11.07 250.34, -1.07 238.27, 0 218 M32 250 C11.33 249.92, 0.82 237.72, 0 218 M0 218 C0.28 155.56, 3.55 87.62, 0 32 M0 218 C-1.12 152.36, -0.64 89.15, 0 32 M0 32 C0.37 10.28, 12.09 1.01, 32 0 M0 32 C-1.12 8.43, 10.3 -0.42, 32 0" stroke="#1e1e1e" stroke-width="1" fill="none"></path></g><g transform="translate(1930.3571428571427 624.4464285714287) rotate(0 93.90625 11.5)"><text x="0" y="0" font-family="Helvetica, Segoe UI Emoji" font-size="20px" fill="#1e1e1e" text-anchor="start" style="white-space: pre;" direction="ltr" dominant-baseline="text-before-edge">DB Schema (Prisma)</text></g><g stroke-linecap="round" transform="translate(1947.8571428571427 426.94642857142867) rotate(0 94.375 34.375)"><path d="M17.19 0 M17.19 0 C57.83 0.82, 97.29 -0.35, 171.56 0 M17.19 0 C76.78 0.97, 135.93 1.63, 171.56 0 M171.56 0 C184.8 1.3, 187.41 6.02, 188.75 17.19 M171.56 0 C182.28 1.02, 189.13 4.53, 188.75 17.19 M188.75 17.19 C188.79 27.59, 186.92 36.44, 188.75 51.56 M188.75 17.19 C187.97 27.93, 188.81 36.78, 188.75 51.56 M188.75 51.56 C187.1 63.42, 184.48 66.84, 171.56 68.75 M188.75 51.56 C186.49 63.08, 184.35 70.19, 171.56 68.75 M171.56 68.75 C117.67 69.96, 63.39 66.65, 17.19 68.75 M171.56 68.75 C117.72 69.64, 65.55 69.21, 17.19 68.75 M17.19 68.75 C7.26 69.05, 1.58 62.05, 0 51.56 M17.19 68.75 C6.92 69.12, 0.33 61.36, 0 51.56 M0 51.56 C0.02 43.65, -1.52 33.25, 0 17.19 M0 51.56 C-0.94 40.67, -0.32 29, 0 17.19 M0 17.19 C0.61 6.99, 7.06 -1.66, 17.19 0 M0 17.19 C-0.87 7.26, 4.3 -1.94, 17.19 0" stroke="#1e1e1e" stroke-width="1" fill="none"></path></g><g transform="translate(1947.8571428571427 400.49642857142874) rotate(0 97.37890625 9.199999999999989)"><text x="0" y="0" font-family="Helvetica, Segoe UI Emoji" font-size="16px" fill="#1e1e1e" text-anchor="start" style="white-space: pre;" direction="ltr" dominant-baseline="text-before-edge">Generate TS schema types</text></g><g transform="translate(639.5 295.05357142857144) rotate(0 150.087890625 46)"><text x="0" y="0" font-family="Helvetica, Segoe UI Emoji" font-size="20px" fill="#1971c2" text-anchor="start" style="white-space: pre;" direction="ltr" dominant-baseline="text-before-edge">- Lets you call anything defined </text><text x="0" y="23" font-family="Helvetica, Segoe UI Emoji" font-size="20px" fill="#1971c2" text-anchor="start" style="white-space: pre;" direction="ltr" dominant-baseline="text-before-edge">  by tRPC server</text><text x="0" y="46" font-family="Helvetica, Segoe UI Emoji" font-size="20px" fill="#1971c2" text-anchor="start" style="white-space: pre;" direction="ltr" dominant-baseline="text-before-edge">- Handles caching, loading states.</text><text x="0" y="69" font-family="Helvetica, Segoe UI Emoji" font-size="20px" fill="#1971c2" text-anchor="start" style="white-space: pre;" direction="ltr" dominant-baseline="text-before-edge">  and I/O types</text></g><g stroke-linecap="round" transform="translate(615.25 275.55357142857144) rotate(0 168.5 61.5)"><path d="M30.75 0 M30.75 0 C105.13 0.68, 183.09 0.03, 306.25 0 M30.75 0 C118.49 -0.48, 205.94 -0.71, 306.25 0 M306.25 0 C325.37 0.73, 335.94 8.43, 337 30.75 M306.25 0 C328.73 1.99, 334.93 9.88, 337 30.75 M337 30.75 C334.92 45.08, 335.12 58.75, 337 92.25 M337 30.75 C335.98 44.91, 336.68 58.31, 337 92.25 M337 92.25 C338.32 111.61, 325.17 122.09, 306.25 123 M337 92.25 C338.85 112.08, 325.41 124.39, 306.25 123 M306.25 123 C198.77 121.13, 88.92 122.61, 30.75 123 M306.25 123 C202.78 124.4, 98.78 124.16, 30.75 123 M30.75 123 C10.37 124.61, 0.16 114.1, 0 92.25 M30.75 123 C9.58 121.06, -1.33 112.29, 0 92.25 M0 92.25 C0.29 79.9, -0.27 66.75, 0 30.75 M0 92.25 C-0.83 67.8, -0.65 44.79, 0 30.75 M0 30.75 C0.37 11.59, 11.37 -0.7, 30.75 0 M0 30.75 C1.27 10.55, 11.01 -0.27, 30.75 0" stroke="#1e1e1e" stroke-width="1" fill="none"></path></g><g transform="translate(635.25 241.05357142857142) rotate(0 101.6943359375 11.5)"><text x="0" y="0" font-family="Helvetica, Segoe UI Emoji" font-size="20px" fill="#1e1e1e" text-anchor="start" style="white-space: pre;" direction="ltr" dominant-baseline="text-before-edge">API client (tRPC client)</text></g><g stroke-linecap="round" transform="translate(595 667.3035714285714) rotate(0 135.625 71.25)"><path d="M32 0 M32 0 C82.85 -1.91, 135.28 -1.44, 239.25 0 M32 0 C115.58 -1.91, 196.64 -2.34, 239.25 0 M239.25 0 C260.82 0.1, 269.9 10.17, 271.25 32 M239.25 0 C259.5 1.84, 271.45 12.02, 271.25 32 M271.25 32 C272.92 49.37, 272.17 63.15, 271.25 110.5 M271.25 32 C272.69 49.72, 272.39 68.8, 271.25 110.5 M271.25 110.5 C273.15 132.29, 261.51 141.31, 239.25 142.5 M271.25 110.5 C271.94 130.96, 260.94 143.16, 239.25 142.5 M239.25 142.5 C188.37 140.47, 140.96 140.51, 32 142.5 M239.25 142.5 C169.11 144.57, 97.16 144.11, 32 142.5 M32 142.5 C12.29 141.16, 0.4 131.62, 0 110.5 M32 142.5 C12.32 140.57, 1.74 131.18, 0 110.5 M0 110.5 C-1.96 81.96, -0.88 56.53, 0 32 M0 110.5 C0.02 81.66, -0.57 54.89, 0 32 M0 32 C-0.9 9.21, 11.99 -1.31, 32 0 M0 32 C-0.02 9.44, 10.55 -1.05, 32 0" stroke="#1e1e1e" stroke-width="1" fill="none"></path></g><g transform="translate(600 636.2535714285715) rotate(0 91.7138671875 11.5)"><text x="0" y="0" font-family="Helvetica, Segoe UI Emoji" font-size="20px" fill="#1e1e1e" text-anchor="start" style="white-space: pre;" direction="ltr" dominant-baseline="text-before-edge">Data validation (zod)</text></g><g transform="translate(610 678.5535714285714) rotate(0 121.7138671875 57.5)"><text x="0" y="0" font-family="Helvetica, Segoe UI Emoji" font-size="20px" fill="#1971c2" text-anchor="start" style="white-space: pre;" direction="ltr" dominant-baseline="text-before-edge">- Can be use to validate </text><text x="0" y="23" font-family="Helvetica, Segoe UI Emoji" font-size="20px" fill="#1971c2" text-anchor="start" style="white-space: pre;" direction="ltr" dominant-baseline="text-before-edge">  inputs more strictly than </text><text x="0" y="46" font-family="Helvetica, Segoe UI Emoji" font-size="20px" fill="#1971c2" text-anchor="start" style="white-space: pre;" direction="ltr" dominant-baseline="text-before-edge">  TS, e.g. str length or URL.</text><text x="0" y="69" font-family="Helvetica, Segoe UI Emoji" font-size="20px" fill="#1971c2" text-anchor="start" style="white-space: pre;" direction="ltr" dominant-baseline="text-before-edge">- Can be used in Frontend </text><text x="0" y="92" font-family="Helvetica, Segoe UI Emoji" font-size="20px" fill="#1971c2" text-anchor="start" style="white-space: pre;" direction="ltr" dominant-baseline="text-before-edge">  and Server</text></g><g transform="translate(1385.6749622926093 295.83934631544923) rotate(0 59.33905029296875 11.478318250377072)"><text x="0" y="0" font-family="Helvetica, Segoe UI Emoji" font-size="19.962292609351433px" fill="#1e1e1e" text-anchor="start" style="white-space: pre;" direction="ltr" dominant-baseline="text-before-edge">Prisma Client</text></g><g stroke-linecap="round" transform="translate(1376.9391025641025 328.285141941392) rotate(0 125.96130279034696 34.92458521870287)"><path d="M17.46 0 M17.46 0 C99.97 0.44, 178.01 0.95, 234.46 0 M17.46 0 C76.47 -0.65, 135.31 -1.68, 234.46 0 M234.46 0 C245.2 -1.33, 253.52 5.36, 251.92 17.46 M234.46 0 C245.82 0.27, 252.87 7.2, 251.92 17.46 M251.92 17.46 C251.31 28.1, 251.93 39.29, 251.92 52.39 M251.92 17.46 C253.06 25.95, 252.31 34.9, 251.92 52.39 M251.92 52.39 C252.93 63.07, 247.5 68.6, 234.46 69.85 M251.92 52.39 C250.13 65.65, 247.2 70.53, 234.46 69.85 M234.46 69.85 C173.45 68.35, 109.34 71.18, 17.46 69.85 M234.46 69.85 C190.19 68.85, 145.62 68.53, 17.46 69.85 M17.46 69.85 C6.35 68.02, -0.1 63.34, 0 52.39 M17.46 69.85 C7.56 68.48, 0.51 66, 0 52.39 M0 52.39 C-0.92 40.48, 1.61 23.62, 0 17.46 M0 52.39 C-0.11 43.88, -0.96 34.5, 0 17.46 M0 17.46 C0.18 4.49, 3.87 0.33, 17.46 0 M0 17.46 C2.22 5.25, 5.62 1.17, 17.46 0" stroke="#1e1e1e" stroke-width="1" fill="none"></path></g><g transform="translate(1383.7135759126368 435.3187957875458) rotate(0 56.0205078125 11.478318250377072)"><text x="0" y="0" font-family="Helvetica, Segoe UI Emoji" font-size="19.96229260935143px" fill="#1e1e1e" text-anchor="start" style="white-space: pre;" direction="ltr" dominant-baseline="text-before-edge">Other clients</text></g><g transform="translate(1395.6584653092007 479.20755898513255) rotate(0 104.84839630126953 22.956636500754144)"><text x="0" y="0" font-family="Helvetica, Segoe UI Emoji" font-size="19.962292609351433px" fill="#1e1e1e" text-anchor="start" style="white-space: pre;" direction="ltr" dominant-baseline="text-before-edge">e.g. Auth, File Storage, </text><text x="0" y="22.956636500754147" font-family="Helvetica, Segoe UI Emoji" font-size="19.962292609351433px" fill="#1e1e1e" text-anchor="start" style="white-space: pre;" direction="ltr" dominant-baseline="text-before-edge">       OpenAI, Stripe</text></g><g stroke-linecap="round" transform="translate(1351.25 274.80357142857144) rotate(0 155.625 153.75)"><path d="M32 0 M32 0 C123.53 0.39, 215.75 -0.78, 279.25 0 M32 0 C118.8 -2.16, 206.21 -1.76, 279.25 0 M279.25 0 C298.74 0.91, 309.99 11.62, 311.25 32 M279.25 0 C302.49 2.28, 312.28 12.01, 311.25 32 M311.25 32 C312.23 91.23, 311.65 152.24, 311.25 275.5 M311.25 32 C311.96 92.14, 311.26 152.46, 311.25 275.5 M311.25 275.5 C309.91 298.38, 302.25 309.3, 279.25 307.5 M311.25 275.5 C310.11 297.2, 298.74 305.46, 279.25 307.5 M279.25 307.5 C204.66 308.2, 126.27 305.68, 32 307.5 M279.25 307.5 C186.63 307.47, 93.95 306.71, 32 307.5 M32 307.5 C8.95 306.45, -1.94 295.3, 0 275.5 M32 307.5 C11.59 306.07, -1.5 298.26, 0 275.5 M0 275.5 C0.08 219.94, -0.77 164.39, 0 32 M0 275.5 C0.54 187.29, 0.69 99.71, 0 32 M0 32 C-1.29 9.12, 9.36 1.12, 32 0 M0 32 C-1.67 12.67, 10.15 0.39, 32 0" stroke="#1e1e1e" stroke-width="1" fill="none"></path></g><g stroke-linecap="round" transform="translate(1191.25 274.80357142857144) rotate(0 53.75 155)"><path d="M26.87 0 M26.87 0 C40.91 -0.76, 53.48 0.34, 80.62 0 M26.87 0 C40.27 -0.32, 52.65 0.08, 80.62 0 M80.62 0 C97.2 1.55, 109.17 10.76, 107.5 26.87 M80.62 0 C97.4 0.37, 105.66 6.92, 107.5 26.87 M107.5 26.87 C106.98 106.94, 104.52 183.11, 107.5 283.12 M107.5 26.87 C106.29 123.42, 106.61 219.07, 107.5 283.12 M107.5 283.12 C105.79 299.99, 96.6 308.47, 80.62 310 M107.5 283.12 C108.42 299.62, 97.04 311.43, 80.62 310 M80.62 310 C68.4 309.89, 55.22 309.28, 26.87 310 M80.62 310 C60.91 309.48, 41.67 309.96, 26.87 310 M26.87 310 C7.67 308.45, -1.3 302.16, 0 283.12 M26.87 310 C7.29 312.01, -0.52 301.43, 0 283.12 M0 283.12 C1.4 186.17, 2.53 85.37, 0 26.87 M0 283.12 C-1.52 187.98, -2.24 94.77, 0 26.87 M0 26.87 C0.05 8.54, 7.01 -0.08, 26.87 0 M0 26.87 C-1.63 10.71, 7.53 -0.8, 26.87 0" stroke="#1e1e1e" stroke-width="1" fill="none"></path></g><g transform="translate(1205 246.2535714285714) rotate(0 35.0146484375 11.5)"><text x="0" y="0" font-family="Helvetica, Segoe UI Emoji" font-size="20px" fill="#1e1e1e" text-anchor="start" style="white-space: pre;" direction="ltr" dominant-baseline="text-before-edge">Routers</text></g><g stroke-linecap="round" transform="translate(1381.538697209653 466.1289862098686) rotate(0 125.96130279034696 34.92458521870287)"><path d="M17.46 0 M17.46 0 C78.2 1.12, 140.11 1.06, 234.46 0 M17.46 0 C99.08 1.83, 181.12 2.19, 234.46 0 M234.46 0 C244.72 -0.52, 251.02 5.78, 251.92 17.46 M234.46 0 C246.32 -1.26, 250.36 6.67, 251.92 17.46 M251.92 17.46 C250.17 30.14, 252.67 44.37, 251.92 52.39 M251.92 17.46 C251.44 24.3, 253.19 32.74, 251.92 52.39 M251.92 52.39 C252.49 62.81, 245.34 68.18, 234.46 69.85 M251.92 52.39 C252.2 63.42, 243.92 69.44, 234.46 69.85 M234.46 69.85 C165.71 68.86, 94.63 70.14, 17.46 69.85 M234.46 69.85 C171.17 69.26, 107.15 70.5, 17.46 69.85 M17.46 69.85 C6.35 71.48, -0.98 63.98, 0 52.39 M17.46 69.85 C6.65 69.18, 0.31 65.35, 0 52.39 M0 52.39 C2.16 45.64, 0.03 39.02, 0 17.46 M0 52.39 C-1.07 41.92, -0.02 31.27, 0 17.46 M0 17.46 C0.62 4.95, 6.5 -1.68, 17.46 0 M0 17.46 C-0.62 3.75, 5.82 0.27, 17.46 0" stroke="#1e1e1e" stroke-width="1" fill="none"></path></g><g transform="translate(1366.25 246.05357142857142) rotate(0 34.462890625 11.5)"><text x="0" y="0" font-family="Helvetica, Segoe UI Emoji" font-size="20px" fill="#1e1e1e" text-anchor="start" style="white-space: pre;" direction="ltr" dominant-baseline="text-before-edge">Context</text></g><g stroke-linecap="round" transform="translate(1203.75 328.55357142857144) rotate(0 41.875 26.875)"><path d="M13.44 0 M13.44 0 C30.78 0.62, 47.3 1.06, 70.31 0 M13.44 0 C27.07 -0.74, 39.01 -0.19, 70.31 0 M70.31 0 C78.46 0.01, 85.14 3.5, 83.75 13.44 M70.31 0 C80.71 2.14, 82.09 2.64, 83.75 13.44 M83.75 13.44 C85.24 25.69, 81.78 32.51, 83.75 40.31 M83.75 13.44 C82.97 18.9, 82.71 25.59, 83.75 40.31 M83.75 40.31 C85.19 47.6, 78.85 53.84, 70.31 53.75 M83.75 40.31 C85.5 49.91, 78.14 53.04, 70.31 53.75 M70.31 53.75 C49.89 55.26, 27.05 52.77, 13.44 53.75 M70.31 53.75 C48.87 54.24, 27.02 54.37, 13.44 53.75 M13.44 53.75 C6 53.47, 0.27 48.88, 0 40.31 M13.44 53.75 C2.42 54.22, -0.71 49.6, 0 40.31 M0 40.31 C-1.84 33.39, 1.29 24.27, 0 13.44 M0 40.31 C-0.45 31.5, -0.23 23.99, 0 13.44 M0 13.44 C-1.34 3.58, 4.01 1.18, 13.44 0 M0 13.44 C1.9 3.68, 4.09 0.96, 13.44 0" stroke="#1e1e1e" stroke-width="1" fill="none"></path></g><g transform="translate(1210 344.6035714285714) rotate(0 34.68359375 9.199999999999989)"><text x="0" y="0" font-family="Helvetica, Segoe UI Emoji" font-size="16px" fill="#e03131" text-anchor="start" style="white-space: pre;" direction="ltr" dominant-baseline="text-before-edge">Functions</text></g><g stroke-linecap="round" transform="translate(1204.375 420.42857142857144) rotate(0 41.875 26.875)"><path d="M13.44 0 M13.44 0 C29.17 0.16, 48.54 -0.13, 70.31 0 M13.44 0 C27.39 -0.63, 41.78 -0.54, 70.31 0 M70.31 0 C79.14 -1.67, 85.1 4.92, 83.75 13.44 M70.31 0 C76.97 0.58, 82.84 2.87, 83.75 13.44 M83.75 13.44 C85.76 23.22, 84.5 31.8, 83.75 40.31 M83.75 13.44 C84.8 19.51, 83.24 26.08, 83.75 40.31 M83.75 40.31 C84.32 50.43, 79.87 52.79, 70.31 53.75 M83.75 40.31 C82.58 50.01, 79.47 52.3, 70.31 53.75 M70.31 53.75 C54.85 54.73, 39.69 55.53, 13.44 53.75 M70.31 53.75 C55.81 53.79, 39.54 52.72, 13.44 53.75 M13.44 53.75 C4.49 54.37, -1.55 49.04, 0 40.31 M13.44 53.75 C2.2 53.05, -1.6 51.15, 0 40.31 M0 40.31 C1.89 30.31, 0.12 19.37, 0 13.44 M0 40.31 C-0.14 31.72, -0.58 24.26, 0 13.44 M0 13.44 C-1.02 2.97, 3.11 1, 13.44 0 M0 13.44 C-0.86 5.93, 2.7 1.73, 13.44 0" stroke="#1e1e1e" stroke-width="1" fill="none"></path></g><g transform="translate(1212.81640625 441.8535714285714) rotate(0 34.68359375 9.199999999999989)"><text x="0" y="0" font-family="Helvetica, Segoe UI Emoji" font-size="16px" fill="#e03131" text-anchor="start" style="white-space: pre;" direction="ltr" dominant-baseline="text-before-edge">Functions</text></g><g transform="translate(1211.25 298.55357142857144) rotate(0 30.68359375 9.199999999999989)"><text x="0" y="0" font-family="Helvetica, Segoe UI Emoji" font-size="16px" fill="#1e1e1e" text-anchor="start" style="white-space: pre;" direction="ltr" dominant-baseline="text-before-edge">Router 1</text></g><g transform="translate(1209.31640625 394.3535714285714) rotate(0 30.68359375 9.199999999999989)"><text x="0" y="0" font-family="Helvetica, Segoe UI Emoji" font-size="16px" fill="#1e1e1e" text-anchor="start" style="white-space: pre;" direction="ltr" dominant-baseline="text-before-edge">Router 2</text></g><g stroke-linecap="round" transform="translate(1203.125 512.9285714285714) rotate(0 41.875 26.875)"><path d="M13.44 0 M13.44 0 C27.16 0.92, 41.02 -1.57, 70.31 0 M13.44 0 C31.41 0.6, 47.44 -0.42, 70.31 0 M70.31 0 C81.24 0.01, 82.11 5.28, 83.75 13.44 M70.31 0 C79.19 1.65, 82.71 5.1, 83.75 13.44 M83.75 13.44 C84.7 20.85, 81.88 30.7, 83.75 40.31 M83.75 13.44 C84.53 22.12, 83.49 28.78, 83.75 40.31 M83.75 40.31 C83.05 47.86, 80.92 52.92, 70.31 53.75 M83.75 40.31 C82.73 48.27, 77.71 55.29, 70.31 53.75 M70.31 53.75 C56.06 52.85, 43.05 54.15, 13.44 53.75 M70.31 53.75 C53.33 55.08, 35.3 54.56, 13.44 53.75 M13.44 53.75 C4.68 52.57, 1.86 47.3, 0 40.31 M13.44 53.75 C4.49 54.11, -1.8 48.69, 0 40.31 M0 40.31 C-1.37 30.35, -0.5 22.97, 0 13.44 M0 40.31 C-0.9 30.97, -0.86 19.79, 0 13.44 M0 13.44 C1.7 5.01, 3.4 0.85, 13.44 0 M0 13.44 C0.99 4.1, 5.03 -1.79, 13.44 0" stroke="#1e1e1e" stroke-width="1" fill="none"></path></g><g transform="translate(1209.06640625 534.3535714285714) rotate(0 34.68359375 9.199999999999989)"><text x="0" y="0" font-family="Helvetica, Segoe UI Emoji" font-size="16px" fill="#e03131" text-anchor="start" style="white-space: pre;" direction="ltr" dominant-baseline="text-before-edge">Functions</text></g><g transform="translate(1209.31640625 489.3535714285714) rotate(0 30.68359375 9.199999999999989)"><text x="0" y="0" font-family="Helvetica, Segoe UI Emoji" font-size="16px" fill="#1e1e1e" text-anchor="start" style="white-space: pre;" direction="ltr" dominant-baseline="text-before-edge">Router 3</text></g><g stroke-linecap="round"><g transform="translate(948.75 320.1446393037173) rotate(0 129.14963828586042 67.06860742852265)"><path d="M-0.3 0.74 C42.99 23.27, 215.78 112.1, 258.6 134.06 M1.74 0.08 C45.07 22.4, 215.35 110.28, 258.23 132.53" stroke="#f08c00" stroke-width="1" fill="none"></path></g><g transform="translate(948.75 320.1446393037173) rotate(0 129.14963828586042 67.06860742852265)"><path d="M229.71 130.53 C236.48 128.07, 240.01 129.02, 260.15 131.9 M229.18 129.27 C234.42 129.22, 242.6 129.85, 257.73 133.41" stroke="#f08c00" stroke-width="1" fill="none"></path></g><g transform="translate(948.75 320.1446393037173) rotate(0 129.14963828586042 67.06860742852265)"><path d="M239.13 112.3 C243.79 113.59, 245.37 118.3, 260.15 131.9 M238.61 111.04 C241.67 115.13, 247.68 119.95, 257.73 133.41" stroke="#f08c00" stroke-width="1" fill="none"></path></g></g><mask></mask><g transform="translate(1063.75 354.80357142857144) rotate(0 16.00390625 9.199999999999989)"><text x="0" y="0" font-family="Helvetica, Segoe UI Emoji" font-size="16px" fill="#f08c00" text-anchor="start" style="white-space: pre;" direction="ltr" dominant-baseline="text-before-edge">calls</text></g><g stroke-linecap="round" transform="translate(1360 947.3035714285714) rotate(0 130 40.625)"><path d="M20.31 0 M20.31 0 C77.1 -0.16, 135.3 -0.56, 239.69 0 M20.31 0 C73.57 0.86, 127.13 0.26, 239.69 0 M239.69 0 C254.12 1.14, 259.5 5.86, 260 20.31 M239.69 0 C253.42 0.7, 261.46 7.32, 260 20.31 M260 20.31 C260.17 37.26, 258.51 52.02, 260 60.94 M260 20.31 C259.86 30.92, 259.59 42.22, 260 60.94 M260 60.94 C259.05 74.99, 255.06 81.62, 239.69 81.25 M260 60.94 C258.61 73.26, 250.98 80.07, 239.69 81.25 M239.69 81.25 C170.36 80.48, 100.83 81.78, 20.31 81.25 M239.69 81.25 C174.47 80.66, 107.11 80.79, 20.31 81.25 M20.31 81.25 C5.19 79.62, 1.07 74.3, 0 60.94 M20.31 81.25 C5.27 81.66, -0.21 73.36, 0 60.94 M0 60.94 C0.56 49.66, 1.33 38.08, 0 20.31 M0 60.94 C0.47 49.36, 0.79 36.78, 0 20.31 M0 20.31 C-0.21 5.72, 5.93 -1.52, 20.31 0 M0 20.31 C-1.73 6.96, 6.18 1.89, 20.31 0" stroke="#1e1e1e" stroke-width="1" fill="none"></path></g><g transform="translate(1362.5 916.2535714285715) rotate(0 127.822265625 11.5)"><text x="0" y="0" font-family="Helvetica, Segoe UI Emoji" font-size="20px" fill="#1e1e1e" text-anchor="start" style="white-space: pre;" direction="ltr" dominant-baseline="text-before-edge">External web service servers</text></g><g transform="translate(1383.9016036987305 968.0969349278172) rotate(0 104.84839630126953 22.956636500754144)"><text x="0" y="0" font-family="Helvetica, Segoe UI Emoji" font-size="19.962292609351433px" fill="#1e1e1e" text-anchor="start" style="white-space: pre;" direction="ltr" dominant-baseline="text-before-edge">e.g. Auth, File Storage, </text><text x="0" y="22.956636500754147" font-family="Helvetica, Segoe UI Emoji" font-size="19.962292609351433px" fill="#1e1e1e" text-anchor="start" style="white-space: pre;" direction="ltr" dominant-baseline="text-before-edge">       OpenAI, Stripe</text></g><g stroke-linecap="round"><g transform="translate(1633.75 504.80357142857144) rotate(0 68.5612630890738 237.39158459641038)"><path d="M0.3 0.89 C25.08 58.42, 150.92 266.8, 148.91 345.63 C146.89 424.46, 15.07 452.32, -11.81 473.89" stroke="#1e1e1e" stroke-width="1.5" fill="none" stroke-dasharray="8 9"></path></g></g><mask></mask><g transform="translate(588.75 92.30357142857142) rotate(0 233.447265625 23)"><text x="0" y="0" font-family="Helvetica, Segoe UI Emoji" font-size="20px" fill="#1971c2" text-anchor="start" style="white-space: pre;" direction="ltr" dominant-baseline="text-before-edge">- NextJS takes care of URL webpage routing, image </text><text x="0" y="23" font-family="Helvetica, Segoe UI Emoji" font-size="20px" fill="#1971c2" text-anchor="start" style="white-space: pre;" direction="ltr" dominant-baseline="text-before-edge">  optimizations and rendering</text></g><g stroke-linecap="round"><g transform="translate(1287.5 358.55357142857144) rotate(0 45.3944030650984 1.7979342864639989)"><path d="M0.87 0.65 C15.84 1.03, 75.94 1.76, 90.92 2.25 M-0.13 -0.06 C14.55 0.51, 74.83 3.35, 89.8 3.65" stroke="#f08c00" stroke-width="1" fill="none"></path></g><g transform="translate(1287.5 358.55357142857144) rotate(0 45.3944030650984 1.7979342864639989)"><path d="M62.35 12.36 C72.07 8.23, 85.47 5.98, 88.47 2.67 M61.84 12.04 C69.37 10.45, 78.7 8.13, 90.34 3.94" stroke="#f08c00" stroke-width="1" fill="none"></path></g><g transform="translate(1287.5 358.55357142857144) rotate(0 45.3944030650984 1.7979342864639989)"><path d="M63.08 -8.15 C72.5 -4.21, 85.62 1.6, 88.47 2.67 M62.57 -8.47 C69.69 -3.7, 78.8 0.33, 90.34 3.94" stroke="#f08c00" stroke-width="1" fill="none"></path></g></g><mask></mask><g stroke-linecap="round"><g transform="translate(1628.75 359.80357142857144) rotate(0 139.00813690055918 0.47983737939966886)"><path d="M-0.04 -0.66 C46.49 -0.42, 233.15 1.04, 279.54 1.35 M-1.53 1.62 C44.88 1.5, 232.5 -0.03, 278.97 -0.45" stroke="#f08c00" stroke-width="1" fill="none"></path></g><g transform="translate(1628.75 359.80357142857144) rotate(0 139.00813690055918 0.47983737939966886)"><path d="M249.78 11.24 C261.15 5.79, 270.16 2.53, 277.11 -0.29 M250.97 10.6 C258.54 7.61, 266.35 3.67, 278.39 -1.21" stroke="#f08c00" stroke-width="1" fill="none"></path></g><g transform="translate(1628.75 359.80357142857144) rotate(0 139.00813690055918 0.47983737939966886)"><path d="M249.6 -9.28 C261.03 -7.97, 270.1 -4.46, 277.11 -0.29 M250.79 -9.92 C258.51 -7.35, 266.37 -5.72, 278.39 -1.21" stroke="#f08c00" stroke-width="1" fill="none"></path></g></g><mask></mask><g stroke-linecap="round"><g transform="translate(2161.6071428571427 380.69642857142867) rotate(0 57.54920865407212 0.9693438545986908)"><path d="M-0.3 0.44 C18.7 0.68, 94.15 0.9, 113.05 1.37 M1.74 -0.37 C21.22 -0.03, 97.03 2.03, 115.4 2.31" stroke="#f08c00" stroke-width="1" fill="none"></path></g><g transform="translate(2161.6071428571427 380.69642857142867) rotate(0 57.54920865407212 0.9693438545986908)"><path d="M87.73 10.78 C91.34 8.8, 100.75 6.33, 113.65 3.5 M86.53 11.42 C94.33 9.63, 100.18 7.67, 116.24 1.49" stroke="#f08c00" stroke-width="1" fill="none"></path></g><g transform="translate(2161.6071428571427 380.69642857142867) rotate(0 57.54920865407212 0.9693438545986908)"><path d="M88.18 -9.73 C91.69 -7.21, 101 -5.18, 113.65 3.5 M86.98 -9.1 C94.78 -6.14, 100.53 -3.35, 116.24 1.49" stroke="#f08c00" stroke-width="1" fill="none"></path></g></g><mask></mask><g transform="translate(1306.49609375 334.3535714285714) rotate(0 16.00390625 9.199999999999989)"><text x="0" y="0" font-family="Helvetica, Segoe UI Emoji" font-size="16px" fill="#f08c00" text-anchor="start" style="white-space: pre;" direction="ltr" dominant-baseline="text-before-edge">calls</text></g><g transform="translate(1789.5318080357142 335.42500000000007) rotate(0 16.00390625 9.199999999999989)"><text x="0" y="0" font-family="Helvetica, Segoe UI Emoji" font-size="16px" fill="#f08c00" text-anchor="start" style="white-space: pre;" direction="ltr" dominant-baseline="text-before-edge">calls</text></g><g transform="translate(2196.8532366071427 357.7464285714286) rotate(0 16.00390625 9.199999999999989)"><text x="0" y="0" font-family="Helvetica, Segoe UI Emoji" font-size="16px" fill="#f08c00" text-anchor="start" style="white-space: pre;" direction="ltr" dominant-baseline="text-before-edge">calls</text></g><g stroke-linecap="round"><g transform="translate(2273.5714285714284 223.73214285714286) rotate(0 -491.67427039918084 32.14631377723927)"><path d="M0.28 -0.84 C-130.43 -9.15, -619.33 -69.93, -783.31 -50.07 C-947.3 -30.21, -950.04 90.49, -983.63 118.33" stroke="#f08c00" stroke-width="1.5" fill="none" stroke-dasharray="8 9"></path></g><g transform="translate(2273.5714285714284 223.73214285714286) rotate(0 -491.67427039918084 32.14631377723927)"><path d="M-979.25 87.24 C-982 102.06, -980.61 111.23, -984.24 117.93" stroke="#f08c00" stroke-width="1.5" fill="none"></path></g><g transform="translate(2273.5714285714284 223.73214285714286) rotate(0 -491.67427039918084 32.14631377723927)"><path d="M-961.68 97.84 C-971.08 108.68, -976.35 113.83, -984.24 117.93" stroke="#f08c00" stroke-width="1.5" fill="none"></path></g></g><mask></mask><g transform="translate(1936.6071428571427 160.4964285714287) rotate(0 44.9140625 9.199999999999989)"><text x="0" y="0" font-family="Helvetica, Segoe UI Emoji" font-size="16px" fill="#f08c00" text-anchor="start" style="white-space: pre;" direction="ltr" dominant-baseline="text-before-edge">can return to</text></g><g stroke-linecap="round" transform="translate(10 268.55357142857144) rotate(0 178.125 209.375)"><path d="M32 0 M32 0 C131.97 0.61, 232.11 0.66, 324.25 0 M32 0 C127.33 -2.33, 221.17 -1.33, 324.25 0 M324.25 0 C343.65 1.9, 354.48 12.51, 356.25 32 M324.25 0 C344.73 2.05, 355.89 12.26, 356.25 32 M356.25 32 C354.25 114.74, 355.27 194.04, 356.25 386.75 M356.25 32 C356.7 135.9, 357.63 241.35, 356.25 386.75 M356.25 386.75 C355.49 406.82, 347 419.98, 324.25 418.75 M356.25 386.75 C353.97 407.34, 343.49 421, 324.25 418.75 M324.25 418.75 C229.52 421.14, 134.96 420.73, 32 418.75 M324.25 418.75 C258.76 418.12, 192.28 417.53, 32 418.75 M32 418.75 C8.83 418.35, 1 406.19, 0 386.75 M32 418.75 C12.89 419.16, 1.17 409.3, 0 386.75 M0 386.75 C-0.12 303.64, -0.97 219.18, 0 32 M0 386.75 C-0.21 288.53, -0.09 190.81, 0 32 M0 32 C-0.12 10.95, 11.14 1.34, 32 0 M0 32 C-1.83 10.98, 9.44 0.44, 32 0" stroke="#1e1e1e" stroke-width="1" fill="none"></path></g><g transform="translate(26.25 233.7535714285714) rotate(0 36.6748046875 11.5)"><text x="0" y="0" font-family="Helvetica, Segoe UI Emoji" font-size="20px" fill="#1e1e1e" text-anchor="start" style="white-space: pre;" direction="ltr" dominant-baseline="text-before-edge">Browser</text></g><g stroke-linecap="round"><g transform="translate(531.25 414.80357142857144) rotate(0 -83.56643752807751 0.539905671355541)"><path d="M1.08 -0.61 C-27.01 -0.21, -139.61 1.51, -167.78 1.66 M0.19 1.69 C-28.04 1.78, -140.15 -0.15, -168.21 -0.24" stroke="#f08c00" stroke-width="1" fill="none"></path></g><g transform="translate(531.25 414.80357142857144) rotate(0 -83.56643752807751 0.539905671355541)"><path d="M-140.93 -8.57 C-149.54 -4.91, -162.06 -3.03, -169.13 -1.29 M-139.18 -10.25 C-145.81 -8.32, -152.21 -6.04, -167.98 -0.48" stroke="#f08c00" stroke-width="1" fill="none"></path></g><g transform="translate(531.25 414.80357142857144) rotate(0 -83.56643752807751 0.539905671355541)"><path d="M-141.15 11.95 C-149.55 8.17, -162 2.62, -169.13 -1.29 M-139.41 10.27 C-146.17 7.35, -152.52 4.79, -167.98 -0.48" stroke="#f08c00" stroke-width="1" fill="none"></path></g></g><mask></mask><g transform="translate(407.5 370.8535714285714) rotate(0 49.79296875 18.400000000000006)"><text x="0" y="0" font-family="Helvetica, Segoe UI Emoji" font-size="16px" fill="#f08c00" text-anchor="start" style="white-space: pre;" direction="ltr" dominant-baseline="text-before-edge">sends HTML, </text><text x="0" y="18.4" font-family="Helvetica, Segoe UI Emoji" font-size="16px" fill="#f08c00" text-anchor="start" style="white-space: pre;" direction="ltr" dominant-baseline="text-before-edge">   CSS, JS</text></g><g stroke-linecap="round" transform="translate(402.5 559.8035714285714) rotate(0 50.625 73.125)"><path d="M25.31 0 M25.31 0 C40.01 1.62, 52.17 -0.05, 75.94 0 M25.31 0 C35.9 0.35, 46.69 -0.37, 75.94 0 M75.94 0 C94.13 -1.41, 99.39 8.42, 101.25 25.31 M75.94 0 C91.3 1.82, 99.7 8.24, 101.25 25.31 M101.25 25.31 C100.32 62.4, 100.97 95.71, 101.25 120.94 M101.25 25.31 C102.08 49.6, 100.74 74.19, 101.25 120.94 M101.25 120.94 C101.77 138.66, 94.66 146.83, 75.94 146.25 M101.25 120.94 C102.41 136.55, 91.28 147.49, 75.94 146.25 M75.94 146.25 C61.45 147.42, 43.7 145.92, 25.31 146.25 M75.94 146.25 C64.68 146.39, 52.53 145.69, 25.31 146.25 M25.31 146.25 C7.49 144.99, 0.2 137.83, 0 120.94 M25.31 146.25 C10.22 144.68, 1.19 139.36, 0 120.94 M0 120.94 C-0.07 91.29, 2.49 62.36, 0 25.31 M0 120.94 C0.09 85.73, 0.34 49.82, 0 25.31 M0 25.31 C-1.68 8.92, 8.91 -1.78, 25.31 0 M0 25.31 C-1.33 10.69, 7.27 -1.57, 25.31 0" stroke="#1e1e1e" stroke-width="1" fill="none"></path></g><g transform="translate(409.5625 586.9285714285714) rotate(0 43.5625 46)"><text x="43.5625" y="0" font-family="Helvetica, Segoe UI Emoji" font-size="16px" fill="#1971c2" text-anchor="middle" style="white-space: pre;" direction="ltr" dominant-baseline="text-before-edge">- Can call </text><text x="43.5625" y="18.4" font-family="Helvetica, Segoe UI Emoji" font-size="16px" fill="#1971c2" text-anchor="middle" style="white-space: pre;" direction="ltr" dominant-baseline="text-before-edge">the router </text><text x="43.5625" y="36.8" font-family="Helvetica, Segoe UI Emoji" font-size="16px" fill="#1971c2" text-anchor="middle" style="white-space: pre;" direction="ltr" dominant-baseline="text-before-edge">functions </text><text x="43.5625" y="55.199999999999996" font-family="Helvetica, Segoe UI Emoji" font-size="16px" fill="#1971c2" text-anchor="middle" style="white-space: pre;" direction="ltr" dominant-baseline="text-before-edge">directly from</text><text x="43.5625" y="73.6" font-family="Helvetica, Segoe UI Emoji" font-size="16px" fill="#1971c2" text-anchor="middle" style="white-space: pre;" direction="ltr" dominant-baseline="text-before-edge">the browser</text></g><g transform="translate(418.75 528.7535714285715) rotate(0 26.123046875 11.5)"><text x="0" y="0" font-family="Helvetica, Segoe UI Emoji" font-size="20px" fill="#1e1e1e" text-anchor="start" style="white-space: pre;" direction="ltr" dominant-baseline="text-before-edge">React</text></g><g stroke-linecap="round"><g transform="translate(532.3164375280776 485.5136657572159) rotate(0 -84.18488020258025 0.34751186631621067)"><path d="M-1.05 -0.83 C-29.26 -0.62, -140.17 1.19, -168.27 1.53 M0.6 1.34 C-27.81 1.16, -140.99 -0.63, -168.97 -0.45" stroke="#f08c00" stroke-width="1" fill="none"></path></g><g transform="translate(532.3164375280776 485.5136657572159) rotate(0 -84.18488020258025 0.34751186631621067)"><path d="M-142.11 -9.74 C-151.06 -8.47, -162.48 -1.9, -167.66 -2 M-140.76 -10.08 C-147.11 -8.01, -151.97 -7.29, -168.75 0.01" stroke="#f08c00" stroke-width="1" fill="none"></path></g><g transform="translate(532.3164375280776 485.5136657572159) rotate(0 -84.18488020258025 0.34751186631621067)"><path d="M-142.24 10.78 C-151.18 4.18, -162.55 2.89, -167.66 -2 M-140.89 10.44 C-147.25 8.4, -152.08 5.02, -168.75 0.01" stroke="#f08c00" stroke-width="1" fill="none"></path></g></g><mask></mask><g transform="translate(401.25 459.6035714285714) rotate(0 53.8046875 9.199999999999989)"><text x="0" y="0" font-family="Helvetica, Segoe UI Emoji" font-size="16px" fill="#f08c00" text-anchor="start" style="white-space: pre;" direction="ltr" dominant-baseline="text-before-edge">or sends React</text></g><g stroke-linecap="round"><g transform="translate(2144.1071428571427 658.1964285714287) rotate(0 -13.443432319555427 -79.856497260239)"><path d="M-1.08 -1.11 C-5.79 -27.88, -23.21 -134.21, -27.43 -160.64 M0.55 0.93 C-3.88 -25.7, -20.71 -132.91, -25.34 -159.44" stroke="#f08c00" stroke-width="1" fill="none"></path></g><g transform="translate(2144.1071428571427 658.1964285714287) rotate(0 -13.443432319555427 -79.856497260239)"><path d="M-12.48 -135.26 C-17.11 -143.25, -20.95 -151.55, -26.03 -160.97 M-9.66 -134.29 C-15.39 -142.6, -22.08 -152.79, -24.58 -158.82" stroke="#f08c00" stroke-width="1" fill="none"></path></g><g transform="translate(2144.1071428571427 658.1964285714287) rotate(0 -13.443432319555427 -79.856497260239)"><path d="M-32.73 -131.93 C-29.93 -140.96, -26.36 -150.48, -26.03 -160.97 M-29.91 -130.95 C-28.4 -140.65, -27.82 -152.04, -24.58 -158.82" stroke="#f08c00" stroke-width="1" fill="none"></path></g></g><mask></mask><g transform="translate(2145.3571428571427 565.6964285714287) rotate(0 49.35546875 18.399999999999977)"><text x="0" y="0" font-family="Helvetica, Segoe UI Emoji" font-size="16px" fill="#f08c00" text-anchor="start" style="white-space: pre;" direction="ltr" dominant-baseline="text-before-edge">defines TS </text><text x="0" y="18.4" font-family="Helvetica, Segoe UI Emoji" font-size="16px" fill="#f08c00" text-anchor="start" style="white-space: pre;" direction="ltr" dominant-baseline="text-before-edge">schema types</text></g><g stroke-linecap="round"><g transform="translate(1685 491.05357142857144) rotate(0 129.61884602398743 -14.08000467339798)"><path d="M-0.73 -0.09 C42.41 -4.74, 216.6 -23.59, 259.96 -28.07 M1.09 -1.18 C44 -5.61, 216.26 -21.95, 259.18 -26.56" stroke="#f08c00" stroke-width="1" fill="none"></path></g><g transform="translate(1685 491.05357142857144) rotate(0 129.61884602398743 -14.08000467339798)"><path d="M232.01 -13 C242.79 -18.79, 255.26 -25.18, 258.83 -27.87 M232.58 -12.56 C242.84 -18.98, 253.06 -23.77, 259.75 -26.85" stroke="#f08c00" stroke-width="1" fill="none"></path></g><g transform="translate(1685 491.05357142857144) rotate(0 129.61884602398743 -14.08000467339798)"><path d="M229.97 -33.42 C241.52 -31.14, 254.8 -29.46, 258.83 -27.87 M230.54 -32.98 C241.37 -31.78, 252.35 -28.95, 259.75 -26.85" stroke="#f08c00" stroke-width="1" fill="none"></path></g></g><mask></mask><g transform="translate(1791.0714285714282 496.94642857142867) rotate(0 42.69140625 27.600000000000023)"><text x="0" y="0" font-family="Helvetica, Segoe UI Emoji" font-size="16px" fill="#f08c00" text-anchor="start" style="white-space: pre;" direction="ltr" dominant-baseline="text-before-edge">can use this</text><text x="0" y="18.4" font-family="Helvetica, Segoe UI Emoji" font-size="16px" fill="#f08c00" text-anchor="start" style="white-space: pre;" direction="ltr" dominant-baseline="text-before-edge">for type </text><text x="0" y="36.8" font-family="Helvetica, Segoe UI Emoji" font-size="16px" fill="#f08c00" text-anchor="start" style="white-space: pre;" direction="ltr" dominant-baseline="text-before-edge">inference</text></g><g transform="translate(426.4285714285715 348.4642857142858) rotate(0 24 9.199999999999989)"><text x="0" y="0" font-family="Helvetica, Segoe UI Emoji" font-size="16px" fill="#f08c00" text-anchor="start" style="white-space: pre;" direction="ltr" dominant-baseline="text-before-edge">(static)</text></g><g transform="translate(422.4285714285715 437.8357142857143) rotate(0 35.1171875 9.199999999999989)"><text x="0" y="0" font-family="Helvetica, Segoe UI Emoji" font-size="16px" fill="#f08c00" text-anchor="start" style="white-space: pre;" direction="ltr" dominant-baseline="text-before-edge">(dynamic)</text></g></svg>